<svg  viewBox="0 0 26 32">
<path d="M12.901 0.847c-6.635 0-12.032 5.397-12.032 12.032s5.397 12.032 12.032 12.032 12.032-5.398 12.032-12.032c0-6.635-5.398-12.032-12.032-12.032zM12.901 1.871c6.070 0 11.008 4.938 11.008 11.008 0 2.385-0.765 4.594-2.059 6.398 0.007-0.060 0.004-0.144 0.009-0.324 0.092-3.313-3.298-3.074-5.625-3.746-0.338-0.098-0.886-0.324-0.993-0.617-0.095-0.259 0-0.645-0.066-0.993 0.562-0.717 0.923-1.635 1.147-2.691 0.175-0.195 0.389-0.325 0.563-0.706 0.090-0.197 0.436-0.96 0.319-1.203-0.060-0.124-0.19-0.187-0.287-0.253 0.635-2.992-1.597-5.008-4.478-4.809-2.438 0.168-4.082 1.991-3.618 4.831-0.21-0.006-0.321 0.141-0.375 0.253-0.114 0.235 0.21 0.849 0.319 1.093 0.075 0.167 0.216 0.311 0.331 0.441 0.13 0.146 0.207 0.254 0.277 0.397 0.103 0.209 0.11 0.524 0.198 0.816 0.164 0.541 0.38 0.979 0.64 1.412 0.131 0.219 0.365 0.488 0.397 0.64 0.054 0.257 0.017 0.599-0.044 0.75-0.222 0.547-1.528 0.778-2.294 0.97-2.158 0.543-4.449 0.69-4.324 3.438 0.007 0.16 0.008 0.249 0.015 0.313-1.299-1.807-2.067-4.020-2.067-6.41 0.001-6.070 4.939-11.008 11.009-11.008z"></path>
</svg>